<svg xmlns="http://www.w3.org/2000/svg" width="1296" viewBox="0 0 1296 1728" height="1728" version="1.0"><defs><clipPath id="a"><path d="M 114.929688 616.386719 L 536.429688 616.386719 L 536.429688 1037.886719 L 114.929688 1037.886719 Z M 114.929688 616.386719"/></clipPath></defs><path fill="#FFF" d="M-129.6 -172.8H1425.6000000000001V1900.8H-129.6z"/><path fill="#FFF" d="M-129.6 -172.8H1425.6000000000001V1900.8H-129.6z"/><path fill="#FFF" d="M-129.6 -172.8H1425.6000000000001V1900.8H-129.6z"/><g clip-path="url(#a)"><path d="M 527.648438 1037.886719 L 123.710938 1037.886719 C 120.160156 1037.886719 116.949219 1035.746094 115.597656 1032.460938 C 114.242188 1029.175781 115 1025.402344 117.492188 1022.890625 L 521.429688 618.953125 C 523.941406 616.441406 527.753906 615.703125 531 617.054688 C 534.285156 618.40625 536.429688 621.621094 536.429688 625.167969 L 536.429688 1029.105469 C 536.429688 1033.953125 532.496094 1037.886719 527.648438 1037.886719 Z M 144.90625 1020.324219 L 518.867188 1020.324219 L 518.867188 646.367188 Z M 144.90625 1020.324219"/></g><path d="M 308.117188 853.480469 C 305.867188 853.480469 303.621094 852.621094 301.898438 850.917969 L 240.429688 789.449219 C 237.003906 786.023438 237.003906 780.457031 240.429688 777.03125 L 310.679688 706.78125 C 314.105469 703.359375 319.671875 703.359375 323.097656 706.78125 L 384.566406 768.25 C 387.988281 771.675781 387.988281 777.242188 384.566406 780.667969 L 314.316406 850.917969 C 312.613281 852.621094 310.363281 853.480469 308.117188 853.480469 Z M 259.0625 783.230469 L 308.117188 832.285156 L 365.949219 774.449219 L 316.898438 725.398438 Z M 259.0625 783.230469"/><path d="M 193.960938 897.386719 C 192.835938 897.386719 191.675781 897.160156 190.605469 896.722656 C 187.320312 895.351562 185.179688 892.15625 185.179688 888.605469 L 185.179688 853.480469 C 185.179688 848.617188 189.113281 844.699219 193.960938 844.699219 C 198.808594 844.699219 202.742188 848.617188 202.742188 853.480469 L 202.742188 867.410156 L 240.429688 829.71875 C 243.855469 826.296875 249.421875 826.296875 252.847656 829.71875 C 256.269531 833.144531 256.269531 838.710938 252.847656 842.136719 L 200.160156 894.824219 C 198.492188 896.492188 196.242188 897.386719 193.960938 897.386719 Z M 193.960938 897.386719"/><path d="M 229.085938 897.386719 L 193.960938 897.386719 C 189.113281 897.386719 185.179688 893.453125 185.179688 888.605469 C 185.179688 883.761719 189.113281 879.824219 193.960938 879.824219 L 229.085938 879.824219 C 233.933594 879.824219 237.867188 883.742188 237.867188 888.605469 C 237.867188 893.472656 233.933594 897.386719 229.085938 897.386719 Z M 229.085938 897.386719"/><path d="M 352.023438 932.511719 C 350.898438 932.511719 349.738281 932.285156 348.667969 931.847656 C 345.382812 930.476562 343.242188 927.28125 343.242188 923.730469 L 343.242188 853.480469 C 343.242188 848.636719 347.175781 844.699219 352.023438 844.699219 C 356.871094 844.699219 360.804688 848.636719 360.804688 853.480469 L 360.804688 902.535156 L 372.148438 891.1875 C 375.574219 887.765625 381.140625 887.765625 384.566406 891.1875 C 387.988281 894.613281 387.988281 900.179688 384.566406 903.605469 L 358.222656 929.949219 C 356.554688 931.617188 354.304688 932.511719 352.023438 932.511719 Z M 352.023438 932.511719"/><path d="M 352.023438 932.511719 C 349.773438 932.511719 347.527344 931.652344 345.804688 929.949219 L 319.460938 903.605469 C 316.035156 900.179688 316.035156 894.613281 319.460938 891.1875 C 322.886719 887.765625 328.453125 887.765625 331.878906 891.1875 L 358.222656 917.53125 C 361.644531 920.957031 361.644531 926.523438 358.222656 929.949219 C 356.519531 931.652344 354.269531 932.511719 352.023438 932.511719 Z M 352.023438 932.511719"/><g><g><g><path d="M 71.140625 0 L 10.953125 0 L 10.953125 -101.375 L 71.140625 -101.375 L 71.140625 -79.390625 L 38.34375 -79.390625 L 38.34375 -63.4375 L 68.71875 -63.4375 L 68.71875 -41.46875 L 38.34375 -41.46875 L 38.34375 -22.328125 L 71.140625 -22.328125 Z M 71.140625 0" transform="translate(562.054 796.93)"/></g></g></g><g><g><g><path d="M 102.265625 0 L 70.578125 0 L 50.828125 -31.6875 L 31.265625 0 L 0.28125 0 L 33.90625 -51.859375 L 2.28125 -101.375 L 32.65625 -101.375 L 50.96875 -70.03125 L 68.578125 -101.375 L 99.84375 -101.375 L 67.734375 -49.71875 Z M 102.265625 0" transform="translate(639.985 796.93)"/></g></g></g><g><g><g><path d="M 56.09375 -80.359375 C 49.570312 -80.359375 44.484375 -77.6875 40.828125 -72.34375 C 37.179688 -67.007812 35.359375 -59.648438 35.359375 -50.265625 C 35.359375 -30.765625 42.78125 -21.015625 57.625 -21.015625 C 62.101562 -21.015625 66.445312 -21.632812 70.65625 -22.875 C 74.863281 -24.125 79.09375 -25.628906 83.34375 -27.390625 L 83.34375 -4.234375 C 74.882812 -0.484375 65.316406 1.390625 54.640625 1.390625 C 39.335938 1.390625 27.609375 -3.046875 19.453125 -11.921875 C 11.296875 -20.796875 7.21875 -33.625 7.21875 -50.40625 C 7.21875 -60.894531 9.191406 -70.113281 13.140625 -78.0625 C 17.085938 -86.019531 22.769531 -92.132812 30.1875 -96.40625 C 37.613281 -100.6875 46.34375 -102.828125 56.375 -102.828125 C 67.320312 -102.828125 77.789062 -100.445312 87.78125 -95.6875 L 79.390625 -74.125 C 75.648438 -75.875 71.90625 -77.347656 68.15625 -78.546875 C 64.414062 -79.753906 60.394531 -80.359375 56.09375 -80.359375 Z M 56.09375 -80.359375" transform="translate(742.669 796.93)"/></g></g></g><g><g><g><path d="M 71.140625 0 L 10.953125 0 L 10.953125 -101.375 L 71.140625 -101.375 L 71.140625 -79.390625 L 38.34375 -79.390625 L 38.34375 -63.4375 L 68.71875 -63.4375 L 68.71875 -41.46875 L 38.34375 -41.46875 L 38.34375 -22.328125 L 71.140625 -22.328125 Z M 71.140625 0" transform="translate(834.814 796.93)"/></g></g></g><g><g><g><path d="M 10.953125 0 L 10.953125 -101.375 L 38.34375 -101.375 L 38.34375 -22.125 L 77.375 -22.125 L 77.375 0 Z M 10.953125 0" transform="translate(912.745 796.93)"/></g></g></g><g><g><g><path d="M 84.515625 -69.125 C 84.515625 -57.800781 81.175781 -49.050781 74.5 -42.875 C 67.820312 -36.707031 58.335938 -33.625 46.046875 -33.625 L 38.34375 -33.625 L 38.34375 0 L 10.953125 0 L 10.953125 -101.375 L 46.046875 -101.375 C 58.847656 -101.375 68.457031 -98.578125 74.875 -92.984375 C 81.300781 -87.390625 84.515625 -79.4375 84.515625 -69.125 Z M 38.34375 -55.953125 L 43.328125 -55.953125 C 47.441406 -55.953125 50.710938 -57.109375 53.140625 -59.421875 C 55.566406 -61.734375 56.78125 -64.921875 56.78125 -68.984375 C 56.78125 -75.828125 52.992188 -79.25 45.421875 -79.25 L 38.34375 -79.25 Z M 38.34375 -55.953125" transform="translate(562.565 937.827)"/></g></g></g><g><g><g><path d="M 97.828125 0 L 70.3125 0 L 70.3125 -41.328125 L 38.484375 -41.328125 L 38.484375 0 L 10.953125 0 L 10.953125 -101.375 L 38.484375 -101.375 L 38.484375 -63.796875 L 70.3125 -63.796875 L 70.3125 -101.375 L 97.828125 -101.375 Z M 97.828125 0" transform="translate(652.283 937.827)"/></g></g></g><g><g><g><path d="M 47.15625 -63.796875 L 64.625 -101.375 L 94.296875 -101.375 L 60.953125 -39.59375 L 60.953125 0 L 33.34375 0 L 33.34375 -38.765625 L 0 -101.375 L 29.8125 -101.375 Z M 47.15625 -63.796875" transform="translate(761.068 937.827)"/></g></g></g><g><g><g><path d="M 77.234375 -30.78125 C 77.234375 -24.5 75.640625 -18.914062 72.453125 -14.03125 C 69.265625 -9.15625 64.664062 -5.363281 58.65625 -2.65625 C 52.644531 0.0390625 45.597656 1.390625 37.515625 1.390625 C 30.765625 1.390625 25.097656 0.914062 20.515625 -0.03125 C 15.941406 -0.976562 11.179688 -2.632812 6.234375 -5 L 6.234375 -29.40625 C 11.460938 -26.71875 16.894531 -24.625 22.53125 -23.125 C 28.175781 -21.625 33.351562 -20.875 38.0625 -20.875 C 42.132812 -20.875 45.117188 -21.578125 47.015625 -22.984375 C 48.910156 -24.390625 49.859375 -26.203125 49.859375 -28.421875 C 49.859375 -29.816406 49.472656 -31.03125 48.703125 -32.0625 C 47.941406 -33.101562 46.71875 -34.15625 45.03125 -35.21875 C 43.34375 -36.28125 38.847656 -38.453125 31.546875 -41.734375 C 24.941406 -44.742188 19.984375 -47.65625 16.671875 -50.46875 C 13.367188 -53.289062 10.921875 -56.523438 9.328125 -60.171875 C 7.734375 -63.828125 6.9375 -68.15625 6.9375 -73.15625 C 6.9375 -82.488281 10.332031 -89.765625 17.125 -94.984375 C 23.914062 -100.210938 33.253906 -102.828125 45.140625 -102.828125 C 55.628906 -102.828125 66.328125 -100.398438 77.234375 -95.546875 L 68.84375 -74.390625 C 59.375 -78.742188 51.195312 -80.921875 44.3125 -80.921875 C 40.75 -80.921875 38.15625 -80.296875 36.53125 -79.046875 C 34.914062 -77.796875 34.109375 -76.242188 34.109375 -74.390625 C 34.109375 -72.410156 35.132812 -70.632812 37.1875 -69.0625 C 39.25 -67.488281 44.832031 -64.625 53.9375 -60.46875 C 62.675781 -56.53125 68.742188 -52.304688 72.140625 -47.796875 C 75.535156 -43.296875 77.234375 -37.625 77.234375 -30.78125 Z M 77.234375 -30.78125" transform="translate(855.362 937.827)"/></g></g></g><g><g><g><path d="M 10.953125 0 L 10.953125 -101.375 L 38.484375 -101.375 L 38.484375 0 Z M 10.953125 0" transform="translate(937.315 937.827)"/></g></g></g><g><g><g><path d="M 56.09375 -80.359375 C 49.570312 -80.359375 44.484375 -77.6875 40.828125 -72.34375 C 37.179688 -67.007812 35.359375 -59.648438 35.359375 -50.265625 C 35.359375 -30.765625 42.78125 -21.015625 57.625 -21.015625 C 62.101562 -21.015625 66.445312 -21.632812 70.65625 -22.875 C 74.863281 -24.125 79.09375 -25.628906 83.34375 -27.390625 L 83.34375 -4.234375 C 74.882812 -0.484375 65.316406 1.390625 54.640625 1.390625 C 39.335938 1.390625 27.609375 -3.046875 19.453125 -11.921875 C 11.296875 -20.796875 7.21875 -33.625 7.21875 -50.40625 C 7.21875 -60.894531 9.191406 -70.113281 13.140625 -78.0625 C 17.085938 -86.019531 22.769531 -92.132812 30.1875 -96.40625 C 37.613281 -100.6875 46.34375 -102.828125 56.375 -102.828125 C 67.320312 -102.828125 77.789062 -100.445312 87.78125 -95.6875 L 79.390625 -74.125 C 75.648438 -75.875 71.90625 -77.347656 68.15625 -78.546875 C 64.414062 -79.753906 60.394531 -80.359375 56.09375 -80.359375 Z M 56.09375 -80.359375" transform="translate(986.75 937.827)"/></g></g></g><g><g><g><path d="M 77.234375 -30.78125 C 77.234375 -24.5 75.640625 -18.914062 72.453125 -14.03125 C 69.265625 -9.15625 64.664062 -5.363281 58.65625 -2.65625 C 52.644531 0.0390625 45.597656 1.390625 37.515625 1.390625 C 30.765625 1.390625 25.097656 0.914062 20.515625 -0.03125 C 15.941406 -0.976562 11.179688 -2.632812 6.234375 -5 L 6.234375 -29.40625 C 11.460938 -26.71875 16.894531 -24.625 22.53125 -23.125 C 28.175781 -21.625 33.351562 -20.875 38.0625 -20.875 C 42.132812 -20.875 45.117188 -21.578125 47.015625 -22.984375 C 48.910156 -24.390625 49.859375 -26.203125 49.859375 -28.421875 C 49.859375 -29.816406 49.472656 -31.03125 48.703125 -32.0625 C 47.941406 -33.101562 46.71875 -34.15625 45.03125 -35.21875 C 43.34375 -36.28125 38.847656 -38.453125 31.546875 -41.734375 C 24.941406 -44.742188 19.984375 -47.65625 16.671875 -50.46875 C 13.367188 -53.289062 10.921875 -56.523438 9.328125 -60.171875 C 7.734375 -63.828125 6.9375 -68.15625 6.9375 -73.15625 C 6.9375 -82.488281 10.332031 -89.765625 17.125 -94.984375 C 23.914062 -100.210938 33.253906 -102.828125 45.140625 -102.828125 C 55.628906 -102.828125 66.328125 -100.398438 77.234375 -95.546875 L 68.84375 -74.390625 C 59.375 -78.742188 51.195312 -80.921875 44.3125 -80.921875 C 40.75 -80.921875 38.15625 -80.296875 36.53125 -79.046875 C 34.914062 -77.796875 34.109375 -76.242188 34.109375 -74.390625 C 34.109375 -72.410156 35.132812 -70.632812 37.1875 -69.0625 C 39.25 -67.488281 44.832031 -64.625 53.9375 -60.46875 C 62.675781 -56.53125 68.742188 -52.304688 72.140625 -47.796875 C 75.535156 -43.296875 77.234375 -37.625 77.234375 -30.78125 Z M 77.234375 -30.78125" transform="translate(1078.895 937.827)"/></g></g></g></svg>